<svg width="523" height="658" viewBox="0 0 523 658" fill="none" xmlns="http://www.w3.org/2000/svg">
<g filter="url(#filter0_d_420_892)">
<path d="M517.617 169.37L485.479 147.945L465.82 161.148C459.909 165.118 459.924 173.82 465.849 177.77L485.552 190.906L517.617 169.37Z" fill="#6EA147"/>
<path d="M324.937 126.74L298.366 109.027C294.997 106.78 290.605 106.788 287.244 109.046L260.734 126.85L292.872 148.276L324.937 126.74Z" fill="#6EA147"/>
<path d="M196.459 83.9998L164.394 105.535L196.532 126.961L228.597 105.425L196.459 83.9998Z" fill="#6EA147"/>
<path d="M36.0641 148.717L4 170.253L68.2759 213.103L100.34 191.568L36.0641 148.717Z" fill="#7CB550"/>
<path d="M137.972 173.744C134.602 171.497 130.211 171.505 126.849 173.763L100.34 191.568L159.048 230.706C162.418 232.953 166.809 232.945 170.171 230.687L184.274 221.215C190.186 217.244 190.171 208.543 184.246 204.593L137.972 173.744Z" fill="#7CB550"/>
<path d="M325.158 255.623L298.588 237.909C295.218 235.663 290.827 235.671 287.465 237.928L260.956 255.733L325.276 297.519L357 276.37L325.158 255.623Z" fill="#6EA147"/>
<path d="M421.424 233.977L389.286 212.552L325.158 255.623L357 276.37L421.424 233.977Z" fill="#7CB550"/>
<path d="M164.394 105.535L196.532 126.961L170.023 144.765C166.661 147.023 162.27 147.031 158.901 144.785L144.765 135.361C138.84 131.411 138.825 122.709 144.736 118.739L164.394 105.535Z" fill="#7CB550"/>
<path d="M260.956 255.733L234.308 237.968C230.978 235.748 226.645 235.727 223.293 237.915L164 276.634L228.966 319.945L261 340.37L325.276 297.519L260.956 255.733Z" fill="#7CB550"/>
<path d="M369.583 199.416C363.658 195.466 363.643 186.764 369.554 182.794L389.212 169.591L357.074 148.165L324.937 126.74L292.872 148.276L266.363 166.08C263.002 168.338 258.61 168.346 255.241 166.1L196.532 126.961L170.023 144.765C166.661 147.023 162.27 147.031 158.901 144.785L144.765 135.361C138.84 131.411 138.825 122.709 144.736 118.739L164.394 105.535L196.459 83.9998L164.321 62.5745L36.0641 148.717L100.34 191.568L68.2759 213.103L100.414 234.433L164 276.634L223.293 237.915C226.645 235.727 230.978 235.748 234.308 237.968L260.956 255.733L287.465 237.928C290.827 235.671 295.218 235.663 298.588 237.909L325.158 255.623L389.286 212.552L369.583 199.416ZM100.34 191.568L126.849 173.763C130.211 171.505 134.602 171.497 137.972 173.744L184.246 204.593C190.171 208.543 190.186 217.244 184.274 221.215L170.171 230.687C166.809 232.945 162.418 232.953 159.048 230.706L100.34 191.568Z" fill="#97CE68"/>
<path d="M389.212 169.591L369.554 182.794C363.643 186.764 363.658 195.466 369.583 199.416L389.286 212.552L421.424 233.977L453.488 212.441L389.212 169.591Z" fill="#6EA147"/>
<path d="M132.552 255.669L100.414 234.244V234.433V267.517C100.414 270.86 102.085 273.983 104.867 275.837L132.552 294.294V255.669Z" fill="#88AC6A"/>
<path d="M261 340.37L228.966 319.945V353.218C228.966 356.561 230.637 359.684 233.419 361.538L261.104 379.995L261 340.37Z" fill="#88AC6A"/>
<path d="M132.552 332.919L115.961 321.858C115.955 321.854 115.949 321.851 115.944 321.847C109.3 317.436 100.414 322.199 100.414 330.179V350.119L132.552 371.544V332.919Z" fill="#516D3B"/>
<path d="M36.138 307.268V345.893L68.276 367.318V328.693L36.138 307.268Z" fill="#4C3D31"/>
<path d="M4.00008 440.343V473.616C4.00008 476.959 5.67109 480.082 8.45308 481.936L68.276 521.818V483.193L4.00008 440.343Z" fill="#594637"/>
<path d="M83.823 454.933C77.1774 450.503 68.276 455.267 68.276 463.253V483.193L117.005 515.679C123.65 520.11 132.552 515.346 132.552 507.359V492.771C132.552 489.427 130.881 486.305 128.099 484.45L83.823 454.933Z" fill="#594637"/>
<path d="M228.966 513.07L212.375 502.009C205.729 497.579 196.828 502.343 196.828 510.33V530.269L261.104 573.12V534.495L228.966 513.07Z" fill="#4C3D31"/>
<path d="M261.104 457.245L228.966 435.82V513.07L261.104 534.495V457.245Z" fill="#594637"/>
<path d="M100.414 350.119L68.276 328.693V367.318L117.005 399.804C123.65 404.235 132.552 399.471 132.552 391.484V371.544L100.414 350.119Z" fill="#594637"/>
<path d="M36.138 345.893L68.276 367.318V387.258C68.276 395.245 59.3745 400.009 52.729 395.579L40.591 387.487C37.809 385.632 36.138 382.51 36.138 379.166V345.893Z" fill="#594637"/>
<path d="M63.823 287.1C66.605 288.954 68.276 292.077 68.276 295.42V328.693L36.138 307.268V268.643L63.823 287.1Z" fill="#594637"/>
<path d="M196.828 530.269L180.237 519.209C173.591 514.778 164.69 519.542 164.69 527.529V586.094L261 649.37L261.053 610.71L261.104 573.12L196.828 530.269Z" fill="#594637"/>
<path d="M201.281 417.363C198.499 415.508 196.828 412.386 196.828 409.043V375.769L164.69 354.344L132.552 332.919V371.544V391.484C132.552 399.471 123.65 404.235 117.005 399.804L68.276 367.318V387.258C68.276 395.245 59.3745 400.009 52.729 395.579L40.591 387.487C37.809 385.632 36.138 382.51 36.138 379.166V345.893V307.268L4.00008 285.843V440.343L68.276 483.193V521.818L164.69 586.094V527.529C164.69 519.542 173.591 514.778 180.237 519.209L196.828 530.269V510.33C196.828 502.343 205.729 497.579 212.375 502.009L228.966 513.07V435.82L201.281 417.363ZM68.276 483.193V463.253C68.276 455.267 77.1774 450.503 83.823 454.933L128.099 484.45C130.881 486.305 132.552 489.427 132.552 492.771V507.359C132.552 515.346 123.65 520.11 117.005 515.679L68.276 483.193Z" fill="#684F3B"/>
<path d="M132.552 255.669V294.294L160.237 312.751C163.019 314.605 164.69 317.727 164.69 321.071V354.344L196.828 375.769V298.519L132.552 255.669Z" fill="#516D3B"/>
<path d="M228.966 319.945L196.828 298.519V375.769L261.104 418.62V379.995L233.419 361.538C230.637 359.684 228.966 356.561 228.966 353.218V319.945Z" fill="#6C924F"/>
<path d="M196.828 375.769V409.043C196.828 412.386 198.499 415.508 201.281 417.363L228.966 435.82L261.104 457.245V456.176V418.62L196.828 375.769Z" fill="#516D3B"/>
<path fill-rule="evenodd" clip-rule="evenodd" d="M68.2759 213.103L100.414 234.433V234.244L68.2759 213.103Z" fill="#6C924F"/>
<path d="M4 170.253L4.00008 208.593L36.138 230.018L52.7289 241.079C59.3745 245.509 68.2759 240.745 68.2759 232.758L68.2759 213.103L4 170.253Z" fill="#88AC6A"/>
<path d="M389.552 254.669L357 276.37L357.414 296.034C357.414 304.021 366.315 308.785 372.961 304.355L389.552 293.294V254.669Z" fill="#97CE68"/>
<path d="M517.617 169.37L485.552 190.906L485.766 210.575C485.852 218.512 494.707 223.19 501.312 218.787L518.104 207.593L517.617 169.37Z" fill="#97CE68"/>
<path d="M261 610.745V649.37L325.276 606.519V567.894L261.053 610.71L261 610.745Z" fill="#7C5A3F"/>
<path d="M329.729 526.301C326.947 528.155 325.276 531.278 325.276 534.621V567.894L385.099 528.013C387.881 526.158 389.552 523.036 389.552 519.692V505.104C389.552 497.117 380.65 492.353 374.005 496.784L329.729 526.301Z" fill="#7C5A3F"/>
<path fill-rule="evenodd" clip-rule="evenodd" d="M453.828 426.573V443.568L518.104 400.718V362.093L498.259 375.323V391.968C498.259 394.729 496.396 398.209 494.099 399.741L454.16 426.367C454.091 426.413 454.022 426.457 453.953 426.499C453.932 426.512 453.911 426.524 453.89 426.536C453.869 426.549 453.849 426.561 453.828 426.573Z" fill="#634832"/>
<path fill-rule="evenodd" clip-rule="evenodd" d="M488.7 304.776L488.389 304.653L488.7 304.445V304.776Z" fill="#7C5A3F"/>
<path fill-rule="evenodd" clip-rule="evenodd" d="M325.276 413.394L325.7 413.112L357.414 391.969L389.552 370.544V403.817C389.552 407.161 387.881 410.283 385.099 412.138L384.014 412.86L368.146 404.7C366.149 403.673 362.911 405.747 360.914 409.333L353.18 423.222C351.183 426.808 351.183 430.547 353.18 431.574L354.74 432.377L325.7 451.737L325.276 452.019V413.394Z" fill="#7C5A3F"/>
<path d="M453.828 443.568L426.143 462.025C423.361 463.88 421.69 467.002 421.69 470.345V542.244L513.651 480.936C516.433 479.082 518.104 475.959 518.104 472.616V400.718L453.828 443.568Z" fill="#7C5A3F"/>
<path fill-rule="evenodd" clip-rule="evenodd" d="M388.699 415.27L373.243 443.072L395.944 455.292C397.003 455.836 398.41 455.508 399.796 454.547C401.182 453.732 402.589 452.256 403.647 450.356L438.985 386.9L442.101 381.305C444.098 377.719 444.098 373.978 442.101 372.951L427.713 364.205C426.38 363.519 424.723 366.465 423.145 369.271C422.57 370.293 422.006 371.296 421.472 372.099L422.825 369.668C423.004 369.347 421.275 372.394 421.472 372.099L418.916 376.687L395.486 418.76L388.699 415.27ZM325.7 451.737L325.276 452.019V461.295V461.53C325.296 461.464 325.316 461.397 325.334 461.331C325.569 460.5 325.7 459.673 325.7 458.896V451.737ZM261.104 456.176L261 456.245V610.745L261.053 610.71L261.104 573.12V534.495V457.245V456.176Z" fill="#976D4C"/>
<path d="M389.552 254.669V293.294L406.143 282.233C412.788 277.803 421.69 282.567 421.69 290.554V310.494L453.828 289.068L453.488 212.441L421.424 233.977L389.552 254.669Z" fill="#6EA147"/>
<path fill-rule="evenodd" clip-rule="evenodd" d="M453.828 289.068V289.992C454.117 289.733 454.415 289.499 454.72 289.296L471.561 278.065V297.968L488.389 304.653L488.7 304.445L518.104 284.843V246.218L453.828 289.068Z" fill="#6EA147"/>
<path fill-rule="evenodd" clip-rule="evenodd" d="M325.276 412.821L325.7 413.046V413.112L325.276 413.394V412.821Z" fill="#7CB550"/>
<path fill-rule="evenodd" clip-rule="evenodd" d="M261 378.995L293.138 357.57V396.195V396.637L291.72 397.583C291.204 397.927 290.706 398.358 290.241 398.852C289.106 400.059 288.161 401.644 287.59 403.262C287.214 404.327 287 405.407 287 406.404V438.912L261.104 456.176L261 456.245V417.62V378.995Z" fill="#6EA147"/>
<path d="M261 340.37V378.995L293.138 357.57L320.823 339.113C323.605 337.258 325.276 334.136 325.276 330.793V297.519L261 340.37Z" fill="#97CE68"/>
<path fill-rule="evenodd" clip-rule="evenodd" d="M422.825 369.668C423.004 369.347 421.275 372.394 421.472 372.099L422.825 369.668Z" fill="#150901"/>
<path fill-rule="evenodd" clip-rule="evenodd" d="M438.985 386.9L418.916 376.687L395.486 418.76L388.699 415.27L373.243 443.072L395.944 455.292C397.003 455.836 398.41 455.508 399.796 454.547C401.182 453.732 402.589 452.256 403.647 450.356L438.985 386.9Z" fill="#351B09"/>
<path d="M442.101 372.951L427.713 364.205C426.38 363.519 424.723 366.465 423.145 369.271C422.57 370.293 422.006 371.296 421.472 372.099L418.916 376.687L438.985 386.9L442.101 381.305C444.098 377.719 444.098 373.978 442.101 372.951Z" fill="#4F290E"/>
<path fill-rule="evenodd" clip-rule="evenodd" d="M325.276 412.821V413.394V452.019V461.295L325.334 461.331C325.569 460.5 325.7 459.673 325.7 458.896V451.737V413.112V413.046L325.276 412.821Z" fill="#4F290E"/>
<path d="M487.048 269.099C486.586 268.932 486.047 268.922 485.457 269.082C484.993 269.208 484.496 269.439 483.98 269.783L471.561 278.065V297.968L488.389 304.653L488.7 304.776V304.445V272.31C488.7 270.584 488.059 269.466 487.048 269.099Z" fill="#243509"/>
<path fill-rule="evenodd" clip-rule="evenodd" d="M325.276 461.53V461.295L325.334 461.331C325.316 461.397 325.296 461.464 325.276 461.53Z" fill="#4F290E"/>
<path fill-rule="evenodd" clip-rule="evenodd" d="M308.561 451.015L293.138 461.162L287 465.2V484.704C287 485.014 287.021 485.305 287.061 485.575C287.424 488.033 289.371 488.797 291.72 487.23L293.138 486.285L320.98 467.718C322.889 466.445 324.532 463.986 325.276 461.53V461.295L318.039 456.844L308.561 451.015Z" fill="#351B09"/>
<path d="M287 465.2L293.138 461.162L308.561 451.015V424.538V403.968V386.352L293.138 396.637L291.72 397.583C291.204 397.927 290.706 398.358 290.241 398.852C289.106 400.059 288.161 401.644 287.59 403.262C287.214 404.327 287 405.407 287 406.404V438.912V465.2Z" fill="black"/>
<path d="M384.014 412.86L368.146 404.7C366.149 403.673 362.911 405.747 360.914 409.333L353.18 423.222C351.183 426.808 351.183 430.547 353.18 431.574L354.74 432.377L356.774 433.424L373.243 443.072L388.699 415.27L384.014 412.86Z" fill="#150901"/>
<path d="M454.72 289.296C454.415 289.499 454.117 289.733 453.828 289.992C453.627 290.171 453.432 290.363 453.241 290.565C452.106 291.772 451.161 293.357 450.59 294.976C450.214 296.04 450 297.12 450 298.117V356.913L471.561 342.728V315.871V297.968V278.065L454.72 289.296Z" fill="black"/>
<path d="M494.099 359.741L485.966 365.163L454.16 386.367C451.863 387.899 450 391.379 450 394.14V424.14C450 426.767 451.686 427.797 453.828 426.573C453.849 426.561 453.869 426.549 453.89 426.536C453.911 426.524 453.932 426.512 453.953 426.499C454.022 426.457 454.091 426.413 454.16 426.367L494.099 399.741C496.396 398.209 498.259 394.729 498.259 391.968V375.323V361.968C498.259 359.206 496.396 358.209 494.099 359.741Z" fill="#EC8B8B"/>
<path d="M331.099 469.741L325.276 473.623L293.258 494.968L291.16 496.367C288.863 497.899 287 501.379 287 504.14V534.14C287 536.902 288.863 537.899 291.16 536.367L331.099 509.741C333.396 508.209 335.259 504.729 335.259 501.968V471.968C335.259 469.206 333.396 468.209 331.099 469.741Z" fill="#EC8B8B"/>
<path d="M325.276 452.019V413.394V412.821L308.561 403.968V424.538V451.015L318.039 456.844L325.276 461.295V452.019Z" fill="#4F290E"/>
<path d="M261.104 534.495V573.12L261.053 610.71L325.276 567.894V606.519L421.69 542.244V470.345C421.69 467.002 423.361 463.88 426.143 462.025L453.828 443.568V426.573C451.686 427.797 450 426.767 450 424.14V394.14C450 391.379 451.863 387.899 454.16 386.367L485.966 365.163L494.099 359.741C496.396 358.209 498.259 359.206 498.259 361.968V375.323L518.104 362.093V284.843L488.7 304.445V304.776V350.61C488.7 351.387 488.569 352.213 488.334 353.044C487.879 354.653 487.03 356.277 485.966 357.581C485.362 358.321 484.69 358.958 483.98 359.431L454.72 378.944C452.371 380.51 450.424 379.747 450.061 377.288C450.021 377.018 450 376.727 450 376.417V356.913V298.117C450 297.12 450.214 296.04 450.59 294.976C451.161 293.357 452.106 291.772 453.241 290.565C453.432 290.363 453.627 290.171 453.828 289.992V289.068L421.69 310.494L389.552 331.919V370.544V403.817C389.552 407.161 387.881 410.283 385.099 412.138L384.014 412.86L388.699 415.27L395.486 418.76L418.916 376.687L421.472 372.099C422.006 371.296 422.57 370.293 423.145 369.271C424.723 366.465 426.38 363.519 427.713 364.205L442.101 372.951C444.098 373.978 444.098 377.719 442.101 381.305L438.985 386.9L403.647 450.356C402.589 452.256 401.182 453.732 399.796 454.547C398.41 455.508 397.003 455.836 395.944 455.292L373.243 443.072L356.774 433.424L354.74 432.377L325.7 451.737V458.896C325.7 459.673 325.569 460.5 325.334 461.331C325.316 461.397 325.296 461.464 325.276 461.53C324.532 463.986 322.889 466.445 320.98 467.718L293.138 486.285L291.72 487.23C289.371 488.797 287.424 488.033 287.061 485.575C287.021 485.305 287 485.014 287 484.704V465.2V438.912L261.104 456.176V457.245V534.495ZM422.825 369.668C423.004 369.347 421.275 372.394 421.472 372.099L422.825 369.668ZM325.276 567.894V534.621C325.276 531.278 326.947 528.155 329.729 526.301L374.005 496.784C380.65 492.353 389.552 497.117 389.552 505.104V519.692C389.552 523.036 387.881 526.158 385.099 528.013L325.276 567.894ZM325.276 473.623L331.099 469.741C333.396 468.209 335.259 469.206 335.259 471.968V501.968C335.259 504.729 333.396 508.209 331.099 509.741L291.16 536.367C288.863 537.899 287 536.902 287 534.14V504.14C287 501.379 288.863 497.899 291.16 496.367L293.258 494.968L325.276 473.623Z" fill="#976D4C"/>
<path fill-rule="evenodd" clip-rule="evenodd" d="M471.561 342.728L485.966 351.588L488.334 353.044C488.569 352.213 488.7 351.387 488.7 350.61V304.776L488.389 304.653L471.561 297.968V315.871V342.728Z" fill="#351B09"/>
<path d="M485.966 351.588L471.561 342.728L450 356.913V376.417C450 376.727 450.021 377.018 450.061 377.288C450.424 379.747 452.371 380.51 454.72 378.944L483.98 359.431C484.69 358.958 485.362 358.321 485.966 357.581C487.03 356.277 487.879 354.653 488.334 353.044L485.966 351.588Z" fill="#4F290E"/>
<path d="M320.98 378.07L319.281 379.203L308.561 386.352V403.968L325.276 412.821L325.7 413.046V380.597C325.7 378.871 325.059 377.753 324.048 377.386C323.586 377.219 323.047 377.209 322.457 377.368C321.993 377.494 321.496 377.726 320.98 378.07Z" fill="#243509"/>
<path fill-rule="evenodd" clip-rule="evenodd" d="M325.276 297.519L357 276.37L357.414 296.034C357.414 304.021 366.315 308.785 372.961 304.355L389.552 293.294L406.143 282.233C412.788 277.803 421.69 282.567 421.69 290.554V310.494L389.552 331.919V370.544L357.414 391.969L325.7 413.112V413.046V380.597C325.7 378.871 325.059 377.753 324.048 377.386C323.586 377.219 323.047 377.209 322.457 377.368C321.993 377.494 321.496 377.726 320.98 378.07L319.281 379.203L308.561 386.352L293.138 396.637V396.195V357.57L320.823 339.113C323.605 337.258 325.276 334.136 325.276 330.793V297.519Z" fill="#7CB550"/>
<path d="M465.82 161.148L485.479 147.945L453.341 126.519L389.212 169.591L453.488 212.441L453.828 289.068L518.104 246.218V207.593L501.312 218.787C494.707 223.19 485.852 218.512 485.766 210.575L485.552 190.906L465.849 177.77C459.924 173.82 459.909 165.118 465.82 161.148Z" fill="#7CB550"/>
<path d="M389.065 83.6689L356.927 62.2436L337.269 75.4469C331.357 79.4173 331.372 88.1188 337.297 92.0688L357.001 105.204L376.704 118.34C382.629 122.29 382.644 130.992 376.733 134.962L357.074 148.165L389.212 169.591L453.341 126.519L389.065 83.6689Z" fill="#6EA147"/>
<path d="M287.157 58.6421C290.527 60.8884 294.918 60.8808 298.28 58.623L324.789 40.8183L266.081 1.6795C262.711 -0.566771 258.32 -0.559225 254.958 1.69861L228.449 19.5033L196.385 41.0389L164.321 62.5745L196.459 83.9998L228.523 62.4642L260.587 40.9286L287.157 58.6421Z" fill="#6EA147"/>
<path d="M298.366 109.027L324.937 126.74L357.074 148.165L376.733 134.962C382.644 130.992 382.629 122.29 376.704 118.34L357.001 105.204L337.297 92.0688C331.372 88.1188 331.357 79.4173 337.269 75.4469L356.927 62.2436L324.789 40.8183L298.28 58.623C294.918 60.8808 290.527 60.8884 287.157 58.6421L260.587 40.9286L228.523 62.4642L196.459 83.9998L228.597 105.425L196.532 126.961L255.241 166.1C258.61 168.346 263.002 168.338 266.363 166.08L292.872 148.276L260.734 126.85L287.244 109.046C290.605 106.788 294.997 106.78 298.366 109.027Z" fill="#7CB550"/>
<path d="M100.414 234.433L68.2759 213.103L68.2759 232.758C68.2759 240.745 59.3745 245.509 52.7289 241.079L36.138 230.018V268.643L63.823 287.1C66.605 288.954 68.276 292.077 68.276 295.42V328.693L100.414 350.119V330.179C100.414 322.199 109.3 317.436 115.944 321.847L115.961 321.858L132.552 332.919L164.69 354.344V321.071C164.69 317.727 163.019 314.605 160.237 312.751L132.552 294.294L104.867 275.837C102.085 273.983 100.414 270.86 100.414 267.517V234.433Z" fill="#6C924F"/>
<path d="M36.138 230.018L4.00008 208.593V247.218V285.843L36.138 307.268V268.643V230.018Z" fill="#516D3B"/>
</g>
<defs>
<filter id="filter0_d_420_892" x="0" y="0" width="522.104" height="657.37" filterUnits="userSpaceOnUse" color-interpolation-filters="sRGB">
<feFlood flood-opacity="0" result="BackgroundImageFix"/>
<feColorMatrix in="SourceAlpha" type="matrix" values="0 0 0 0 0 0 0 0 0 0 0 0 0 0 0 0 0 0 127 0" result="hardAlpha"/>
<feOffset dy="4"/>
<feGaussianBlur stdDeviation="2"/>
<feComposite in2="hardAlpha" operator="out"/>
<feColorMatrix type="matrix" values="0 0 0 0 0 0 0 0 0 0 0 0 0 0 0 0 0 0 0.25 0"/>
<feBlend mode="normal" in2="BackgroundImageFix" result="effect1_dropShadow_420_892"/>
<feBlend mode="normal" in="SourceGraphic" in2="effect1_dropShadow_420_892" result="shape"/>
</filter>
</defs>
</svg>
